<?xml version="1.0" encoding="UTF-8" standalone="no"?>
<!-- Created with Inkscape (http://www.inkscape.org/) -->

<svg
   version="1.1"
   id="svg1"
   width="320"
   height="320"
   viewBox="0 0 320 320"
   sodipodi:docname="comparr.svg"
   inkscape:version="1.4.2 (f4327f4, 2025-05-13)"
   xmlns:inkscape="http://www.inkscape.org/namespaces/inkscape"
   xmlns:sodipodi="http://sodipodi.sourceforge.net/DTD/sodipodi-0.dtd"
   xmlns="http://www.w3.org/2000/svg"
   xmlns:svg="http://www.w3.org/2000/svg">
  <defs
     id="defs1" />
  <sodipodi:namedview
     id="namedview1"
     pagecolor="#ffffff"
     bordercolor="#000000"
     borderopacity="0.25"
     inkscape:showpageshadow="2"
     inkscape:pageopacity="0.0"
     inkscape:pagecheckerboard="0"
     inkscape:deskcolor="#d1d1d1"
     inkscape:zoom="2.659375"
     inkscape:cx="160"
     inkscape:cy="160"
     inkscape:window-width="1920"
     inkscape:window-height="1111"
     inkscape:window-x="-9"
     inkscape:window-y="-9"
     inkscape:window-maximized="1"
     inkscape:current-layer="g1" />
  <g
     inkscape:groupmode="layer"
     inkscape:label="Image"
     id="g1">
    <path
       style="fill:#ffffff"
       d="m 145.37532,318.73448 -2.24,-0.11155 -4.64,-0.34074 -4.64,-0.34073 -5.6,-0.80032 -5.6,-0.80032 -5.16506,-1.10905 -5.16506,-1.10905 -4.43494,-1.25836 -4.43494,-1.25835 -4.165887,-1.43208 -4.1659,-1.43207 -3.1941,-1.27387 -3.19411,-1.27387 -4.60374,-2.11699 -4.603733,-2.11699 -4.196263,-2.29197 -4.196264,-2.29197 -3.36,-2.06179 -3.36,-2.06179 -3.04,-2.08823 -3.04,-2.08822 -3.2,-2.41513 -3.2,-2.41513 -3.74447,-3.14247 -3.74447,-3.14248 -3.748422,-3.59651 -3.748421,-3.59651 -3.506865,-3.84 -3.506864,-3.84 -3.085794,-3.84 -3.085795,-3.84 -0.746399,-1.05427 -0.746399,-1.05427 5.071949,5.08042 5.07195,5.08041 2.729995,2.25131 2.729995,2.25131 3.734809,2.68255 3.734808,2.68254 3.304821,1.98443 3.304822,1.98443 4.470375,2.22088 4.470375,2.22088 3.68,1.43994 3.68,1.43993 3.632591,1.1672 3.63259,1.16721 4.446676,1.09185 4.446673,1.09185 4.72074,0.79652 4.72073,0.79651 5.6,0.55862 5.599997,0.55861 9.92,-0.006 9.92,-0.006 4.8,-0.38409 4.8,-0.3841 5.15989,-0.62622 5.15989,-0.62622 4.44011,-0.81103 4.44011,-0.81104 4.64,-1.12306 4.64,-1.12307 3.68,-1.14357 3.68,-1.14357 4.32,-1.68611 4.32,-1.6861 3.76,-1.77751 3.76,-1.77751 v -14.92861 -14.9286 l -1.68,1.01 -1.68,1.01 -5.76,2.82676 -5.76,2.82676 -4.429,1.63924 -4.429,1.63925 -4.371,1.23411 -4.371,1.23411 -3.84,0.82556 -3.84,0.82556 -2.88,0.48248 -2.88,0.48248 -4.22641,0.48974 -4.22641,0.48974 -6.69825,0.30736 -6.69825,0.30736 -5.87534,-0.29619 -5.87534,-0.2962 -3.80346,-0.50289 -3.803457,-0.5029 -3.86405,-0.81585 -3.86405,-0.81585 -3.63347,-1.10135 -3.63347,-1.10135 -2.939022,-1.14587 -2.939018,-1.14587 -3.829819,-1.90737 -3.829818,-1.90738 -2.730182,-1.64823 -2.730181,-1.64824 -3.68,-2.77323 -3.68,-2.77324 -2.56,-2.36458 -2.56,-2.36458 -2.734931,-2.88879 -2.734931,-2.88878 -1.771717,-2.22447 -1.771716,-2.22447 -1.615642,-2.26831 -1.615642,-2.26831 -1.915233,-3.17169 -1.915233,-3.17169 -1.688225,-3.36 -1.688224,-3.36 -1.665292,-4.16 -1.665293,-4.16 -1.159477,-3.84 -1.159478,-3.84 -0.783085,-3.36 -0.783086,-3.36 -0.492921,-2.72 -0.492921,-2.72 -0.484196,-3.68 -0.484196,-3.68 -0.329281,-4.30397 -0.32928,-4.30396 7.77e-4,-7.53604 7.77e-4,-7.53603 0.322225,-4.32 0.322224,-4.32 0.502242,-4 0.502243,-4 0.944699,-4.8 0.944699,-4.8 0.971867,-3.62768 0.971866,-3.62768 1.28615,-3.73232 1.286149,-3.73232 1.291207,-3.04 1.291207,-3.04 1.603311,-3.2 1.603312,-3.199996 1.922567,-3.2 1.922568,-3.2 1.769472,-2.526084 1.769472,-2.526084 2.812254,-3.443666 2.812255,-3.443666 3.682453,-3.682453 3.682453,-3.682453 3.450775,-2.775949 3.450776,-2.775948 3.52,-2.34393 3.52,-2.343931 3.525332,-1.914771 3.525332,-1.914771 3.45345,-1.475058 3.453446,-1.475057 3.24454,-1.129349 3.24454,-1.12935 3.69668,-0.927438 3.69668,-0.927439 3.359997,-0.641551 3.36,-0.64155 4.64,-0.566169 4.64,-0.566169 8.8,-0.0036 8.8,-0.0036 4,0.403173 4,0.403174 4.95269,0.797017 4.9527,0.797016 4.54092,1.094697 4.54093,1.094698 4.51174,1.474541 4.51174,1.474542 3.80884,1.565656 3.80885,1.565655 4.8287,2.418381 4.82871,2.418381 -0.0829,-16.35924 -0.0829,-16.35924 -2.4,-0.964545 -2.4,-0.964544 -4.14485,-1.408297 -4.14486,-1.408297 -5.13514,-1.262869 -5.13517,-1.262125 -4.8,-0.800931 -4.8,-0.800931 -4.16,-0.474811 -4.16,-0.474811 -4.8,-0.361366 -4.8,-0.361367 -9.76,-0.0137 -9.76,-0.01371 -4,0.369835 -4,0.369835 -4.8,0.652764 -4.799997,0.652765 -4.49768,0.934578 -4.49768,0.934579 -4.46232,1.261434 -4.46232,1.261434 -3.52,1.25946 -3.52,1.259461 -2.88,1.193957 -2.88,1.193958 -4.48,2.238786 -4.48,2.238785 -4.095548,2.450506 -4.095548,2.450506 -3.956758,2.880983 -3.956758,2.880983 -3.407847,2.834509 -3.407847,2.834509 -3.866905,3.725491 -3.866905,3.725491 -3.459763,3.938322 -3.459763,3.938323 -2.813179,3.753837 -2.813179,3.753838 -0.57482,0.78784 -0.57482,0.78784 0.22738,-0.48 0.227379,-0.48 2.98371,-4.570722 2.983711,-4.570721 2.7001,-3.589279 2.700101,-3.589278 2.128019,-2.56 2.128019,-2.56 3.997897,-4.377714 3.997896,-4.377714 4.377714,-4.002095 4.377714,-4.002095 3.84,-3.103215 3.84,-3.103216 3.68,-2.618315 3.68,-2.618316 3.598561,-2.292232 3.598561,-2.292232 4.965556,-2.759745 4.965556,-2.759744 4.715886,-2.166696 4.71588,-2.166695 3.84,-1.522683 3.84,-1.522682 5.233577,-1.7195368 5.23358,-1.7195359 5.80642,-1.4367699 5.80642,-1.4367699 5.63571,-0.9499729 5.63571,-0.9499729 4.60429,-0.5095497 4.60429,-0.5095497 8.65181,-0.1862335 8.65182,-0.1862336 5.26818,0.3837122 5.26819,0.3837123 4.96,0.6282874 4.96,0.6282874 5.6,1.1204844 5.6,1.1204844 4.69038,1.273333 4.69038,1.2733331 5.57368,1.9065082 5.57368,1.9065074 4.61594,1.964881 4.61594,1.964881 5.28,2.669558 5.28,2.669559 3.68,2.190476 3.68,2.190475 4,2.679227 4,2.679227 3.2,2.420089 3.2,2.42009 3.84,3.198061 3.84,3.19806 5.93843,5.93014 5.93843,5.93014 3.30948,3.982245 3.30948,3.982246 2.81319,3.771823 2.81319,3.771824 2.16603,3.285009 2.16603,3.285009 2.19086,3.680922 2.19086,3.680922 2.67032,5.28 2.67031,5.28 1.9832,4.638032 1.9832,4.638024 2.20076,6.56197 2.20076,6.56197 1.27559,5.12 1.27558,5.12 0.82396,4.48 0.82395,4.48 0.63095,4.96 0.63096,4.96 0.24094,4.08 0.24094,4.08 h -0.2508 -0.25081 l -2.59396,-1.30422 -2.59396,-1.30422 -4.19894,-2.5009 -4.19893,-2.5009 -3.92202,-2.79839 -3.92202,-2.79839 -4.07798,-3.35869 -4.07798,-3.35869 -7.68,-7.73803 -7.68,-7.73803 -3.68,-4.20563 -3.68,-4.20562 -5.23424,-0.0142 -5.23423,-0.0141 0.15767,0.4 0.15767,0.4 1.54185,3.52 1.54185,3.52 2.15808,4.20133 2.15809,4.20132 1.81437,2.99868 1.81437,2.99867 2.72244,4 2.72245,4 2.27035,2.88 2.27035,2.88 1.84946,2.10758 1.84947,2.10758 v 0.21242 0.21242 h -84.80889 -84.8089 l 2.76274,-3.28 2.76274,-3.28 2.19808,-2.91938 2.19808,-2.91938 2.52175,-3.80062 2.52174,-3.80062 2.08615,-3.68 2.08614,-3.68 1.76259,-3.52 1.76259,-3.52 0.88135,-2.08 0.88134,-2.08 0.44054,-1.04 0.44055,-1.04 -5.2043,0.003 -5.20429,0.003 -4.32,4.86223 -4.32,4.86224 -6.56,6.60046 -6.559997,6.60046 -3.37634,2.8748 -3.37633,2.87481 -3.18367,2.4048 -3.18366,2.4048 -3.36,2.24853 -3.36,2.24853 -3.68,2.08527 -3.68,2.08527 -2,1.00591 -2,1.00591 v 2.87248 2.87247 l 3.167567,1.58956 3.167566,1.58956 2.832434,1.66621 2.832433,1.6662 2.88,1.92289 2.88,1.92288 3.18366,2.40418 3.18367,2.40417 3.37633,2.87924 3.37634,2.87923 6.423347,6.42086 6.42335,6.42086 4.57528,5.04 4.57527,5.04 h 5.21744 5.21744 l -1.28295,-2.96 -1.28295,-2.96 -2.18879,-4.39039 -2.1888,-4.3904 -1.83365,-3.1296 -1.83366,-3.12961 -2.86388,-4.25176 -2.86388,-4.25177 -2.41789,-3.10823 -2.41789,-3.10824 -1.86889,-2.12283 -1.8689,-2.12283 v -0.19797 -0.19717 h 84.68101 84.68101 l -0.76101,0.93254 -0.76101,0.93253 -3.46466,4.26747 -3.46466,4.26746 -3.30639,4.96 -3.30638,4.96 -1.81332,3.17353 -1.81332,3.17353 -1.87945,3.74926 -1.87945,3.74927 -1.2807,3.0772 -1.2807,3.07721 h 5.21902 5.21901 l 3.79649,-4.24 3.7965,-4.24 6.249,-6.35533 6.24901,-6.35534 3.68,-3.24881 3.68,-3.24881 2.72,-2.10945 2.72,-2.10944 2.3679,-1.67976 2.3679,-1.67977 3.53807,-2.21649 3.53806,-2.21649 4.09404,-2.08179 4.09403,-2.08178 v 2.65709 2.65709 l -0.32746,5.11454 -0.32746,5.11454 -0.62881,4.96 -0.62882,4.96 -0.62315,3.38972 -0.62314,3.38971 -0.83786,3.73573 -0.83786,3.73574 -1.42668,4.97062 -1.42669,4.97062 -1.46453,4.06393 -1.46453,4.06393 -1.59939,3.84 -1.59938,3.84 -2.51051,5.12 -2.5105,5.12 -2.62733,4.48 -2.62733,4.48 -2.55675,3.84 -2.55674,3.84 -2.65199,3.52 -2.65198,3.52 -2.55176,3.05395 -2.55176,3.05395 -3.60071,3.82605 -3.60071,3.82605 -3.87308,3.63232 -3.87309,3.63232 -4.91367,3.95349 -4.91367,3.95348 -4.36633,3.01569 -4.36633,3.01569 -4.64,2.79567 -4.64,2.79566 -6.72,3.29511 -6.72,3.29511 -4.53579,1.78566 -4.53578,1.78566 -4.75806,1.57424 -4.75806,1.57424 -5.90615,1.48374 -5.90616,1.48373 -6.4,1.08044 -6.4,1.08043 -5.44,0.49061 -5.44,0.49061 -6.4,0.1321 -6.4,0.13209 z M 13.375323,79.727944 v -0.16 h 0.16 0.16 v 0.16 0.16 h -0.16 -0.16 z m 0.48,-0.8 0.197771,-0.32 h 0.16 0.16 l -0.197771,0.32 -0.197771,0.32 h -0.16 -0.16 z"
       id="path1" />
  </g>
</svg>
